<?xml version="1.0" encoding="UTF-8"?>
<svg  version="1.1" xmlns="http://www.w3.org/2000/svg" width="30" height="30">
  <path
    d="M0 0 C5.68088674 1.13617735 6.90204811 2.28325294 11 6 C11.33 4.02 11.66 2.04 12 0 C17.17048998 0.32315562 21.51071428 3.30291562 25 7 C25 8.32 25 9.64 25 11 C22.91796875 12.921875 22.91796875 12.921875 20.1875 14.75 C19.29417969 15.36359375 18.40085937 15.9771875 17.48046875 16.609375 C15 18 15 18 12 18 C11.67 16.02 11.34 14.04 11 12 C10.45730469 12.433125 9.91460937 12.86625 9.35546875 13.3125 C8.64003906 13.869375 7.92460937 14.42625 7.1875 15 C6.12595703 15.8353125 6.12595703 15.8353125 5.04296875 16.6875 C3 18 3 18 0 18 C0 12.06 0 6.12 0 0 Z "
    fill="#181818" transform="translate(3,6)" />
</svg>