<?xml version="1.0" encoding="UTF-8"?>
<svg  version="1.1" xmlns="http://www.w3.org/2000/svg" width="30" height="30">
  <path
    d="M0 0 C0.33 1.98 0.66 3.96 1 6 C1.54269531 5.566875 2.08539063 5.13375 2.64453125 4.6875 C3.35996094 4.130625 4.07539063 3.57375 4.8125 3 C5.52019531 2.443125 6.22789063 1.88625 6.95703125 1.3125 C9 0 9 0 12 0 C12 5.94 12 11.88 12 18 C8.43320663 17.10830166 7.04396879 16.5329766 4.25 14.4375 C3.63640625 13.98246094 3.0228125 13.52742188 2.390625 13.05859375 C1.93171875 12.70925781 1.4728125 12.35992187 1 12 C0.67 13.98 0.34 15.96 0 18 C-3.3971438 17.35329602 -5.852809 16.05741903 -8.75 14.1875 C-9.54921875 13.68605469 -10.3484375 13.18460938 -11.171875 12.66796875 C-11.77515625 12.11753906 -12.3784375 11.56710938 -13 11 C-13 9.68 -13 8.36 -13 7 C-10.91796875 5.078125 -10.91796875 5.078125 -8.1875 3.25 C-7.29417969 2.63640625 -6.40085937 2.0228125 -5.48046875 1.390625 C-3 0 -3 0 0 0 Z "
    fill="#181818" transform="translate(15,6)" />
</svg>