<?xml version="1.0" encoding="UTF-8"?>
<svg version="1.1" xmlns="http://www.w3.org/2000/svg" width="30" height="30">
<path d="M0 0 C3.89202152 0.7784043 5.91291449 1.28104526 9.20703125 3.06640625 C10.33334961 3.6706543 10.33334961 3.6706543 11.48242188 4.28710938 C12.25134766 4.70798828 13.02027344 5.12886719 13.8125 5.5625 C14.60076172 5.98724609 15.38902344 6.41199219 16.20117188 6.84960938 C18.1373378 7.89396554 20.07005367 8.9442077 22 10 C22 11.32 22 12.64 22 14 C18.90116855 15.67673137 15.79511545 17.3396134 12.6875 19 C11.80642578 19.47695313 10.92535156 19.95390625 10.01757812 20.4453125 C9.17001953 20.89648438 8.32246094 21.34765625 7.44921875 21.8125 C6.66893311 22.23144531 5.88864746 22.65039062 5.0847168 23.08203125 C3 24 3 24 0 24 C0 16.08 0 8.16 0 0 Z " fill="#000000" transform="translate(5,3)"/>
</svg>
