<?xml version="1.0" encoding="UTF-8"?>
<svg version="1.1" xmlns="http://www.w3.org/2000/svg" width="30" height="30">
  <path
    d="M0 0 C0.66 0 1.32 0 2 0 C2.125 2.375 2.125 2.375 2 5 C0 7 0 7 -3.6953125 7.1953125 C-5.17200108 7.182009 -6.64862358 7.15814835 -8.125 7.125 C-8.87910156 7.11597656 -9.63320313 7.10695313 -10.41015625 7.09765625 C-12.27357254 7.0740687 -14.13682593 7.03819719 -16 7 C-16 7.99 -16 8.98 -16 10 C-17.98 9.34 -19.96 8.68 -22 8 C-22 6.68 -22 5.36 -22 4 C-20.02 3.34 -18.04 2.68 -16 2 C-16 2.99 -16 3.98 -16 5 C-14.08247047 4.93970033 -12.16582574 4.85083293 -10.25 4.75 C-8.64898438 4.68039063 -8.64898438 4.68039063 -7.015625 4.609375 C-3.44999156 3.8888584 -2.36681922 2.66533695 0 0 Z "
    fill="#181818" transform="translate(26,16)" />
  <path
    d="M0 0 C1.98 0.66 3.96 1.32 6 2 C6 3.32 6 4.64 6 6 C4.02 6.66 2.04 7.32 0 8 C0 7.01 0 6.02 0 5 C-1.91752953 5.06029967 -3.83417426 5.14916707 -5.75 5.25 C-7.35101562 5.31960938 -7.35101562 5.31960938 -8.984375 5.390625 C-12.55000844 6.1111416 -13.63318078 7.33466305 -16 10 C-16.66 10 -17.32 10 -18 10 C-18.125 7.625 -18.125 7.625 -18 5 C-16 3 -16 3 -12.3046875 2.8046875 C-10.82799892 2.817991 -9.35137642 2.84185165 -7.875 2.875 C-7.12089844 2.88402344 -6.36679688 2.89304687 -5.58984375 2.90234375 C-3.72642746 2.9259313 -1.86317407 2.96180281 0 3 C0 2.01 0 1.02 0 0 Z "
    fill="#181818" transform="translate(20,4)" />
</svg>