<?xml version="1.0" encoding="UTF-8"?>
<svg version="1.1" xmlns="http://www.w3.org/2000/svg" width="30" height="30">
<path d="M0 0 C0.66 0 1.32 0 2 0 C2.125 2.375 2.125 2.375 2 5 C0 7 0 7 -3.6953125 7.1953125 C-5.17200108 7.182009 -6.64862358 7.15814835 -8.125 7.125 C-8.87910156 7.11597656 -9.63320313 7.10695313 -10.41015625 7.09765625 C-12.27357254 7.0740687 -14.13682593 7.03819719 -16 7 C-16 7.99 -16 8.98 -16 10 C-17.98 9.34 -19.96 8.68 -22 8 C-22 6.68 -22 5.36 -22 4 C-20.02 3.34 -18.04 2.68 -16 2 C-16 2.99 -16 3.98 -16 5 C-14.08247047 4.93970033 -12.16582574 4.85083293 -10.25 4.75 C-8.64898438 4.68039063 -8.64898438 4.68039063 -7.015625 4.609375 C-3.44999156 3.8888584 -2.36681922 2.66533695 0 0 Z " fill="#000000" transform="translate(26,16)"/>
<path d="M0 0 C1.98 0.66 3.96 1.32 6 2 C6 3.32 6 4.64 6 6 C4.02 6.66 2.04 7.32 0 8 C0 7.01 0 6.02 0 5 C-1.46109063 5.25554054 -2.91888096 5.53000372 -4.375 5.8125 C-5.59316406 6.03873047 -5.59316406 6.03873047 -6.8359375 6.26953125 C-9.35820641 6.87544942 -9.35820641 6.87544942 -11 10 C-11.66 10 -12.32 10 -13 10 C-13.125 7.625 -13.125 7.625 -13 5 C-11 3 -11 3 -8.3984375 2.8046875 C-7.40070312 2.82789063 -6.40296875 2.85109375 -5.375 2.875 C-3.87066406 2.90207031 -3.87066406 2.90207031 -2.3359375 2.9296875 C-1.56507812 2.95289063 -0.79421875 2.97609375 0 3 C0 2.01 0 1.02 0 0 Z " fill="#000000" transform="translate(15,4)"/>
<path d="M0 0 C0.99 0 1.98 0 3 0 C3 2.64 3 5.28 3 8 C2.34 8 1.68 8 1 8 C-0.42944945 5.64561267 -1.08661261 4.51967567 -0.625 1.75 C-0.41875 1.1725 -0.2125 0.595 0 0 Z " fill="#000000" transform="translate(25,4)"/>
</svg>
