<?xml version="1.0" encoding="UTF-8"?>
<svg version="1.1" xmlns="http://www.w3.org/2000/svg" width="30" height="30">
  <path
    d="M0 0 C1.65 0.66 3.3 1.32 5 2 C5 3.32 5 4.64 5 6 C3.35 6.66 1.7 7.32 0 8 C0 7.01 0 6.02 0 5 C-1.65 5.33 -3.3 5.66 -5 6 C-5.79953138 9.28696233 -6.09658936 10.71023192 -5 14 C-3.35 14.33 -1.7 14.66 0 15 C0 14.01 0 13.02 0 12 C1.65 12.66 3.3 13.32 5 14 C5 15.32 5 16.64 5 18 C3.35 18.66 1.7 19.32 0 20 C0 19.01 0 18.02 0 17 C-0.9075 17.04125 -1.815 17.0825 -2.75 17.125 C-5.8782046 17.00468444 -7.38614006 16.6085292 -10 15 C-10.66 15.66 -11.32 16.32 -12 17 C-15.625 17.125 -15.625 17.125 -19 17 C-19 16.34 -19 15.68 -19 15 C-17.02 14.67 -15.04 14.34 -13 14 C-12.20046862 10.71303767 -11.90341064 9.28976808 -13 6 C-15.97 5.505 -15.97 5.505 -19 5 C-19 4.34 -19 3.68 -19 3 C-11.57142857 2.71428571 -11.57142857 2.71428571 -8 5 C-7.34 4.34 -6.68 3.68 -6 3 C-2.875 2.875 -2.875 2.875 0 3 C0 2.01 0 1.02 0 0 Z "
    fill="#181818" transform="translate(21,5)" />
</svg>