<?xml version="1.0" encoding="UTF-8"?>
<svg version="1.1" xmlns="http://www.w3.org/2000/svg" width="30" height="30">
<path d="M0 0 C3.64273032 0.91068258 5.66212084 1.8195061 8.75 3.8125 C9.54921875 4.31394531 10.3484375 4.81539062 11.171875 5.33203125 C12.07679687 6.15767578 12.07679687 6.15767578 13 7 C13 8.32 13 9.64 13 11 C10.91796875 12.921875 10.91796875 12.921875 8.1875 14.75 C6.84751953 15.67039062 6.84751953 15.67039062 5.48046875 16.609375 C3 18 3 18 0 18 C0 12.06 0 6.12 0 0 Z " fill="#000000" transform="translate(6,6)"/>
<path d="M0 0 C0.99 0 1.98 0 3 0 C3 5.94 3 11.88 3 18 C2.01 18 1.02 18 0 18 C0 12.06 0 6.12 0 0 Z " fill="#000000" transform="translate(21,6)"/>
</svg>
