<?xml version="1.0" encoding="UTF-8"?>
<svg version="1.1" xmlns="http://www.w3.org/2000/svg" width="30" height="30">
<path d="M0 0 C0 5.94 0 11.88 0 18 C-3.64273032 17.08931742 -5.66212084 16.1804939 -8.75 14.1875 C-9.54921875 13.68605469 -10.3484375 13.18460938 -11.171875 12.66796875 C-11.77515625 12.11753906 -12.3784375 11.56710938 -13 11 C-13 9.68 -13 8.36 -13 7 C-10.91796875 5.078125 -10.91796875 5.078125 -8.1875 3.25 C-7.29417969 2.63640625 -6.40085937 2.0228125 -5.48046875 1.390625 C-3 0 -3 0 0 0 Z " fill="#000000" transform="translate(24,6)"/>
<path d="M0 0 C0.99 0 1.98 0 3 0 C3 5.94 3 11.88 3 18 C2.01 18 1.02 18 0 18 C0 12.06 0 6.12 0 0 Z " fill="#000000" transform="translate(6,6)"/>
</svg>
