<?xml version="1.0" encoding="UTF-8"?>
<svg version="1.1" xmlns="http://www.w3.org/2000/svg" width="30" height="30">
<path d="M0 0 C0 5.28 0 10.56 0 16 C-1.65 15.01 -3.3 14.02 -5 13 C-8.19395026 12.28598768 -8.19395026 12.28598768 -11 12 C-11 9.36 -11 6.72 -11 4 C-9.906875 3.71125 -8.81375 3.4225 -7.6875 3.125 C-5.48441433 2.45287217 -2.08910496 0 0 0 Z " fill="#000000" transform="translate(11,7)"/>
<path d="M0 0 C3 1 3 1 4 3 C4.06950541 4.54023996 4.08452357 6.08334988 4.0625 7.625 C4.05347656 8.44226562 4.04445313 9.25953125 4.03515625 10.1015625 C4.02355469 10.72804688 4.01195312 11.35453125 4 12 C2.02 12.99 2.02 12.99 0 14 C0 9.33333333 0 4.66666667 0 0 Z " fill="#000000" transform="translate(14,8)"/>
</svg>
