<?xml version="1.0" encoding="UTF-8"?>
<svg version="1.1" xmlns="http://www.w3.org/2000/svg" width="30" height="30">
<path d="M0 0 C0 5.28 0 10.56 0 16 C-1.65 15.01 -3.3 14.02 -5 13 C-8.19395026 12.28598768 -8.19395026 12.28598768 -11 12 C-11 9.36 -11 6.72 -11 4 C-9.906875 3.71125 -8.81375 3.4225 -7.6875 3.125 C-5.48441433 2.45287217 -2.08910496 0 0 0 Z " fill="#181818" transform="translate(11,7)"/>
<path d="M0 0 C0.9075 0.185625 1.815 0.37125 2.75 0.5625 C5.68314324 0.95734621 7.2644657 0.94691572 10 0 C9.814375 0.9075 9.62875 1.815 9.4375 2.75 C9.04265379 5.68314324 9.05308428 7.2644657 10 10 C9.0925 9.814375 8.185 9.62875 7.25 9.4375 C4.31685676 9.04265379 2.7355343 9.05308428 0 10 C0.185625 9.0925 0.37125 8.185 0.5625 7.25 C0.95734621 4.31685676 0.94691572 2.7355343 0 0 Z " fill="#181818" transform="translate(16,10)"/>
</svg>
