<?xml version="1.0" encoding="UTF-8"?>
<svg version="1.1" xmlns="http://www.w3.org/2000/svg" width="30" height="30">
<path d="M0 0 C0 5.28 0 10.56 0 16 C-1.65 15.01 -3.3 14.02 -5 13 C-8.19395026 12.28598768 -8.19395026 12.28598768 -11 12 C-11 9.36 -11 6.72 -11 4 C-9.906875 3.71125 -8.81375 3.4225 -7.6875 3.125 C-5.48441433 2.45287217 -2.08910496 0 0 0 Z " fill="#181818" transform="translate(11,7)"/>
<path d="M0 0 C3 1 3 1 4.6875 3.25 C6.75461003 9.15602867 7.45086198 16.20596185 5.16796875 22.17578125 C4.125 23.8125 4.125 23.8125 2 26 C1.34 26 0.68 26 0 26 C0.875 21.25 0.875 21.25 2 19 C2.58192025 12.25196323 2.19670909 6.99382954 -1 1 C-0.67 0.67 -0.34 0.34 0 0 Z " fill="#181818" transform="translate(24,2)"/>
<path d="M0 0 C1.9375 0.8125 1.9375 0.8125 4 2 C5.01702117 5.0510635 5.16582083 7.24199061 5.1875 10.4375 C5.20167969 11.38496094 5.21585938 12.33242188 5.23046875 13.30859375 C4.99614518 16.04501644 4.39701383 17.66428123 3 20 C2.01 20 1.02 20 0 20 C0.165 19.360625 0.33 18.72125 0.5 18.0625 C1.49267155 11.98238675 1.23765436 6.03356501 0 0 Z " fill="#181818" transform="translate(19,5)"/>
<path d="M0 0 C3 1 3 1 4 3 C4.06950541 4.54023996 4.08452357 6.08334988 4.0625 7.625 C4.05347656 8.44226562 4.04445313 9.25953125 4.03515625 10.1015625 C4.02355469 10.72804688 4.01195312 11.35453125 4 12 C2.02 12.99 2.02 12.99 0 14 C0 9.33333333 0 4.66666667 0 0 Z " fill="#181818" transform="translate(14,8)"/>
</svg>
