<?xml version="1.0" encoding="UTF-8"?>
<svg version="1.1" xmlns="http://www.w3.org/2000/svg" width="512" height="512">
  <path
    d="M0 0 C139.26 0 278.52 0 422 0 C422.33 17.49 422.66 34.98 423 53 C430.425 57.95 430.425 57.95 438 63 C445.27369803 68.70946189 452.22797022 74.70519379 459 81 C459.66515625 81.61101562 460.3303125 82.22203125 461.015625 82.8515625 C475.99172474 97.15799924 487.35061792 115.32672163 496 134 C496.53367187 135.12792969 497.06734375 136.25585938 497.6171875 137.41796875 C517.38554193 181.10295923 517.16076239 232.30036959 501 277 C494.5468981 294.03807019 485.45115584 309.83421289 474 324 C473.57605957 324.5254541 473.15211914 325.0509082 472.71533203 325.59228516 C458.18601001 343.48718633 442.22287047 356.18475302 423 369 C422.67 386.49 422.34 403.98 422 422 C282.74 422 143.48 422 0 422 C0 282.74 0 143.48 0 0 Z M30 30 C30 149.46 30 268.92 30 392 C149.46 392 268.92 392 392 392 C392 356.69 392 321.38 392 285 C384.575 282.525 384.575 282.525 377 280 C356.95148372 270.34701068 343.96754071 256.57356611 336 236 C329.09355811 215.84134489 331.5370236 195.04645633 340.37890625 176.03515625 C349.41850672 158.47320766 363.74414465 146.96904022 382 140 C385.3 139.01 388.6 138.02 392 137 C392 101.69 392 66.38 392 30 C272.54 30 153.08 30 30 30 Z M422 91 C422 115.75 422 140.5 422 166 C416.39 166 410.78 166 405 166 C391.10080012 168.12021693 379.80645083 172.62292793 371 184 C364.00566515 195.31397187 360.41332833 206.67014454 363 220 C365.01109973 227.52338862 368.21239697 233.87280001 373 240 C373.47824219 240.61617187 373.95648438 241.23234375 374.44921875 241.8671875 C382.05356682 250.48672561 393.84095294 254.89635798 405 256 C410.61 256 416.22 256 422 256 C422 280.75 422 305.5 422 331 C454.65939516 306.50545363 473.96842382 271.72523638 480.54418945 231.68652344 C482.69922139 214.25696678 482.57246508 193.966252 478 177 C477.79600586 176.22092285 477.59201172 175.4418457 477.38183594 174.63916016 C471.19569881 151.34884914 461.17570362 130.0948549 445 112 C444.13632812 111.00484375 443.27265625 110.0096875 442.3828125 108.984375 C436.4711111 102.26758628 430.25130695 96.29800287 423 91 C422.67 91 422.34 91 422 91 Z "
    fill="#A3A3A3" transform="translate(0,45)" />
  <path
    d="M0 0 C0.04680114 21.17568515 0.08202853 42.35136172 0.10362434 63.52708817 C0.1139199 73.3601988 0.12794722 83.19327723 0.15087891 93.02636719 C0.17086558 101.60075616 0.18372893 110.17512179 0.18817699 118.74953341 C0.19077545 123.28608767 0.19684686 127.82257519 0.21146011 132.35910797 C0.22512755 136.63705365 0.22920429 140.91490566 0.22621536 145.19287109 C0.22676145 146.7552415 0.23068396 148.31761534 0.23841095 149.87996674 C0.3177919 166.77196544 -1.23055999 181.95768522 -13.0625 194.9375 C-23.22182074 204.21415404 -35.87210603 208.48496463 -49.5 207.875 C-62.75857229 206.50829883 -73.53508726 200.71154221 -82.140625 190.57421875 C-90.80713001 178.57584312 -92.05274776 167.33426181 -91 153 C-88.97004766 141.311612 -81.99201437 131.39133965 -72.43359375 124.5 C-63.60836829 119.06037468 -55.87608596 116.82146054 -45.5625 116.8125 C-44.82451172 116.80025391 -44.08652344 116.78800781 -43.32617188 116.77539062 C-42.60107422 116.77345703 -41.87597656 116.77152344 -41.12890625 116.76953125 C-40.47994385 116.76542236 -39.83098145 116.76131348 -39.16235352 116.75708008 C-37 117 -37 117 -31 119 C-31 93.26 -31 67.52 -31 41 C-37.17332031 42.6603125 -43.34664062 44.320625 -49.70703125 46.03125 C-53.61252051 47.0798396 -57.51806638 48.12820834 -61.42382812 49.17578125 C-67.6266409 50.83947384 -73.82922436 52.50399079 -80.03051758 54.17333984 C-85.02871023 55.51876723 -90.02786519 56.86056096 -95.02771568 58.19981384 C-96.93748574 58.71205163 -98.84690212 59.22560985 -100.75596046 59.74049377 C-103.42468734 60.46002559 -106.09461982 61.17490194 -108.76489258 61.88867188 C-109.95495911 62.21127235 -109.95495911 62.21127235 -111.16906738 62.54039001 C-114.19651164 63.3454671 -116.85242653 64 -120 64 C-119.99815641 64.60738636 -119.99631283 65.21477272 -119.99441338 65.84056473 C-119.95011439 80.66583709 -119.91708534 95.491103 -119.89637566 110.31642532 C-119.88609268 117.4860396 -119.8720898 124.65560952 -119.84912109 131.82519531 C-119.82909548 138.07912502 -119.81626195 144.33302256 -119.81182301 150.58698344 C-119.80923104 153.89394413 -119.80212882 157.20079222 -119.78853989 160.50772858 C-119.77392753 164.21256359 -119.77202614 167.91721091 -119.77294922 171.62207031 C-119.76575867 172.70101562 -119.75856812 173.77996094 -119.75115967 174.89160156 C-119.79157207 189.97564073 -122.64414567 203.5084098 -133.0625 214.9375 C-143.22182074 224.21415404 -155.87210603 228.48496463 -169.5 227.875 C-182.75857229 226.50829883 -193.53508726 220.71154221 -202.140625 210.57421875 C-210.80713001 198.57584312 -212.05274776 187.33426181 -211 173 C-208.97004766 161.311612 -201.99201437 151.39133965 -192.43359375 144.5 C-183.60836829 139.06037468 -175.87608596 136.82146054 -165.5625 136.8125 C-164.82451172 136.80025391 -164.08652344 136.78800781 -163.32617188 136.77539062 C-162.23852539 136.77249023 -162.23852539 136.77249023 -161.12890625 136.76953125 C-160.47994385 136.76542236 -159.83098145 136.76131348 -159.16235352 136.75708008 C-157 137 -157 137 -151 139 C-151 106.33 -151 73.66 -151 40 C-120.78213055 31.87977957 -120.78213055 31.87977957 -108.68904114 28.63244629 C-95.77748108 25.16532835 -82.86657806 21.69579872 -69.95737457 18.21991539 C-62.39284272 16.18316761 -54.82786054 14.14809835 -47.26258087 12.11413002 C-42.63467771 10.8697884 -38.00703222 9.62450453 -33.37994385 8.37713623 C-28.99760885 7.19576635 -24.61465568 6.0167188 -20.23122215 4.83943176 C-18.60639193 4.40258354 -16.98179633 3.96486161 -15.35744667 3.52622986 C-13.13596271 2.92648146 -10.91367825 2.32979677 -8.69116211 1.73388672 C-6.81587074 1.22908279 -6.81587074 1.22908279 -4.9026947 0.71408081 C-2 0 -2 0 0 0 Z M-59 155 C-60.7792361 160.3377083 -60.83210936 165.16242516 -58.5 170.3125 C-54.93149785 174.14863981 -51.24114674 176.69652184 -45.9140625 177.1953125 C-40.68454257 176.85469243 -37.57034698 174.90247228 -34 171 C-31.57429683 166.98858982 -30.58910669 163.45455247 -31.5 158.8125 C-32.98718703 154.13979508 -35.90068937 151.52019046 -39.8125 148.6875 C-47.70214255 146.20789805 -53.80115148 148.70665705 -59 155 Z M-179 175 C-180.7792361 180.3377083 -180.83210936 185.16242516 -178.5 190.3125 C-175.36284129 193.68494561 -172.41727199 195.66570208 -168 197 C-162.54565254 197 -159.19598392 195.43307775 -155 192 C-152.32186916 188.49072511 -151.17671732 185.41793309 -151 181 C-152.6416408 175.80147079 -154.85270738 172.52519872 -159 169 C-167.20421741 166.26526086 -173.48154373 168.31976347 -179 175 Z "
    fill="#A3A3A3" transform="translate(285,140)" />
</svg>