<?xml version="1.0" encoding="UTF-8"?>
<svg version="1.1" xmlns="http://www.w3.org/2000/svg" fill="#A3A3A3" width="512" height="512">
  <path
    d="M0 0 C19.50924995 16.21199778 33.63113491 37.42190551 37 63 C37.67538369 72.31509159 37.57140253 81.65657274 37.5078125 90.9901123 C37.50000316 92.99918778 37.50779667 95.00756437 37.52148438 97.01660156 C37.61551064 111.7968068 37.65713367 125.86067861 33 140 C32.7230127 140.85013672 32.44602539 141.70027344 32.16064453 142.57617188 C28.31910869 153.24139184 22.34725428 164.15099944 13.98046875 171.875 C8.96266403 176.55855032 5.43480144 180.28651871 5.09277344 187.44165039 C5.20028451 194.93403196 5.48594414 203.3175623 10.875 208.96484375 C15.52721043 211.99459579 20.56429273 213.51804402 25.8125 215.25 C29.504375 216.4875 33.19625 217.725 37 219 C37 230.55 37 242.1 37 254 C29.41152309 252.3136718 22.43252002 250.27595201 15.125 247.75 C14.01769531 247.38003906 12.91039062 247.01007813 11.76953125 246.62890625 C-3.04081506 241.52969183 -15.75485694 234.4655534 -23 220 C-27.59897212 210.11959362 -27.71313677 200.27356104 -27.6862793 189.58984375 C-27.68750419 186.74026125 -27.7476479 183.89568483 -27.81054688 181.046875 C-27.95639314 165.86530172 -27.95639314 165.86530172 -23.671875 160.87890625 C-21.84277344 159.29516602 -21.84277344 159.29516602 -20 158 C-7.67525076 147.98021116 1.32641938 133.69732113 3.27929688 117.71411133 C5.93996656 90.57889003 6.79376205 59.79445035 -11.06640625 37.41015625 C-22.44971355 24.2451139 -36.17834505 16.30743323 -53.5625 14.25 C-70.67838097 13.11037476 -86.05561163 17.97911846 -99.34765625 28.6484375 C-108.66751626 36.91140617 -114.986498 46.10189762 -118.8125 57.9375 C-119.01963623 58.56922119 -119.22677246 59.20094238 -119.44018555 59.85180664 C-122.44380137 69.83474722 -122.18652239 80.34482995 -122.18530273 90.67773438 C-122.18748228 92.73328607 -122.20569563 94.788293 -122.22460938 96.84375 C-122.31388838 117.66286801 -118.78977013 137.16150384 -104.08984375 152.93359375 C-101.42839211 155.56519733 -98.65327971 158.01911099 -95.76171875 160.39453125 C-92.41464599 163.44474611 -90.83954317 165.49165129 -90.58007812 170.08740234 C-90.54675077 171.75332689 -90.53164293 173.41967967 -90.53125 175.0859375 C-90.52363647 175.97930817 -90.51602295 176.87267883 -90.50817871 177.79312134 C-90.49737578 179.68773615 -90.49452539 181.58241052 -90.49902344 183.47705078 C-90.49998511 186.33081383 -90.45859225 189.18178882 -90.4140625 192.03515625 C-90.30536119 208.55107503 -93.24208643 221.00586134 -105.09765625 233.1484375 C-112.99014031 240.63724954 -122.23737918 244.34088402 -132.50390625 247.55859375 C-134.48122129 248.19825404 -136.45843173 248.83823776 -138.43554688 249.47851562 C-141.50353923 250.46189373 -144.57284583 251.44077595 -147.64428711 252.41333008 C-150.64319184 253.36634037 -153.63614258 254.33649871 -156.62890625 255.30859375 C-157.53540421 255.59004745 -158.44190216 255.87150116 -159.37586975 256.16148376 C-168.87802359 259.26749599 -177.20765954 264.09665483 -182.15234375 273.09765625 C-185.69699246 280.45185625 -186.14779843 287.75688882 -186.16113281 295.83374023 C-186.16609772 296.57147675 -186.17106262 297.30921326 -186.17617798 298.06930542 C-186.19064848 300.48241138 -186.19757446 302.89545174 -186.203125 305.30859375 C-186.20595238 306.13953112 -186.20877975 306.97046848 -186.21169281 307.82658577 C-186.22662042 312.22008704 -186.23589167 316.61355599 -186.24023438 321.00708008 C-186.24572365 325.52373671 -186.26977971 330.04009263 -186.29820633 334.55665493 C-186.31689993 338.05097809 -186.32204178 341.54522955 -186.32357025 345.03959846 C-186.32657983 346.70403762 -186.33455046 348.36847603 -186.34775543 350.03286552 C-186.89659914 364.2133619 -186.89659914 364.2133619 -180.75 376.4375 C-174.7481321 379.84765222 -169.08022887 380.2620199 -162.37768555 380.04907227 C-160.65143126 380.01332329 -158.92516837 379.97798757 -157.19889832 379.94300842 C-156.29291586 379.92124102 -155.3869334 379.89947361 -154.45349693 379.87704659 C-149.6186038 379.77295975 -144.78303273 379.74232547 -139.94726562 379.70117188 C-133.80975968 379.64743832 -127.67576263 379.57126131 -121.5402832 379.40014648 C-116.56440717 379.26332389 -111.59371835 379.21043139 -106.61603737 379.21278191 C-104.72867687 379.19864769 -102.84127739 379.15438215 -100.95538902 379.07852364 C-88.9892749 378.61634936 -88.9892749 378.61634936 -84 381 C-79.68766964 385.11442049 -77.4739353 390.46647908 -75.10846901 395.83384514 C-73.25055379 399.46455746 -70.64631379 402.41523937 -67.9375 405.4375 C-67.46157315 405.97143844 -66.98564631 406.50537687 -66.49529743 407.05549526 C-66.05212272 407.55151776 -65.608948 408.04754026 -65.15234375 408.55859375 C-63 411 -63 411 -62 413 C-77.30835471 413.09372547 -92.61669613 413.16411675 -107.9252739 413.20724869 C-115.03442771 413.22781406 -122.14340253 413.25581816 -129.25244141 413.30175781 C-135.45363438 413.3418115 -141.65469764 413.36747653 -147.8560164 413.37635398 C-151.13516992 413.38153772 -154.41386918 413.3957394 -157.6929245 413.42292023 C-161.36679158 413.45215001 -165.03990169 413.45594769 -168.71386719 413.45410156 C-169.78346176 413.46848267 -170.85305634 413.48286377 -171.95506287 413.49768066 C-185.91357032 413.42226847 -196.64057264 408.06692495 -206.75 398.6875 C-215.75975961 389.16775399 -219.47105257 377.91447898 -219.40405273 364.99902344 C-219.41091599 364.05444778 -219.41777924 363.10987213 -219.42485046 362.13667297 C-219.44300586 359.04408311 -219.43929595 355.95200623 -219.43359375 352.859375 C-219.43816195 350.68760008 -219.44346941 348.51582659 -219.44947815 346.34405518 C-219.45838799 341.80173862 -219.45601152 337.25959806 -219.44604492 332.71728516 C-219.43457664 326.92986231 -219.45474529 321.14305158 -219.48396206 315.35570908 C-219.50241591 310.87207248 -219.50201305 306.38857995 -219.49632454 301.90491486 C-219.49617235 299.7729227 -219.50213111 297.64092014 -219.51461601 295.50896454 C-219.62178699 274.20473858 -216.16715542 257.47880673 -200.78515625 241.7265625 C-187.06445791 228.29451841 -169.53467926 223.66558962 -151.68286133 217.95361328 C-148.89152432 217.05739327 -146.10392934 216.15018746 -143.31640625 215.2421875 C-142.46945694 214.97542206 -141.62250763 214.70865662 -140.74989319 214.43380737 C-134.96229179 212.54469492 -129.93206324 210.59829194 -126.1875 205.5625 C-122.88056334 198.42647878 -122.57745089 188.72014832 -124 181 C-125.57939721 178.35762973 -127.1880635 176.9614547 -129.5859375 175.05078125 C-143.92817136 162.86684472 -152.32455876 141.06431121 -155 123 C-155.09978329 121.12575017 -155.15745068 119.24887262 -155.17700195 117.37207031 C-155.19625481 115.74812347 -155.19625481 115.74812347 -155.21589661 114.09136963 C-155.22328354 112.9319989 -155.23067047 111.77262817 -155.23828125 110.578125 C-155.246353 109.36413025 -155.25442474 108.1501355 -155.26274109 106.89935303 C-155.27655645 104.3272849 -155.28728996 101.75519864 -155.29516602 99.18310547 C-155.30662756 96.58246393 -155.32698543 93.98184481 -155.35668945 91.38134766 C-155.741395 57.66050963 -148.61816444 31.48064157 -124.9375 6.5 C-91.5692853 -26.0847069 -36.68920102 -28.47520079 0 0 Z "
    fill="#626262" transform="translate(299,51)" />
  <path
    d="M0 0 C4.9366011 2.29199337 7.39931255 5.26303358 10 10 C10.2371875 11.10214844 10.474375 12.20429688 10.71875 13.33984375 C12.33433129 17.95508664 14.49952458 19.78931152 18.25 22.75 C19.18392578 23.51860352 19.18392578 23.51860352 20.13671875 24.30273438 C22.07583392 25.8887511 24.03329019 27.44837467 26 29 C26.89235352 29.70479492 26.89235352 29.70479492 27.80273438 30.42382812 C30.11034699 32.24045933 32.42275869 34.05077363 34.74047852 35.85449219 C60.32137478 55.82181281 85.05961879 80.35600393 90 114 C90.21287867 117.31327508 90.27623561 120.61809914 90.3125 123.9375 C90.34150391 124.81857422 90.37050781 125.69964844 90.40039062 126.60742188 C90.45561568 132.27861009 89.80569449 135.5124809 86 140 C82.18069828 143.62833663 79.11720994 144.31000458 74 144.5 C68.88279006 144.31000458 65.81930172 143.62833663 62 140 C57.87878533 134.91872964 57.18910013 130.59619872 56.5 124.3125 C53.26663881 99.66229914 38.70207574 82.40767658 19.7109375 67.17578125 C16.77547284 64.81979593 13.88892723 62.41275508 11 60 C10.99853344 60.80230639 10.99706688 61.60461279 10.99555588 62.4312315 C10.9584256 81.99704946 10.89932867 101.56268979 10.81609726 121.12836742 C10.77637025 130.59038242 10.74394566 140.05231501 10.72900391 149.5144043 C10.71595443 157.76624516 10.6889061 166.01790421 10.64538693 174.26964265 C10.62284593 178.63466634 10.60708487 182.99946641 10.60811615 187.36455345 C10.60886715 191.4826332 10.59074202 195.60022002 10.55883217 199.71817207 C10.55039211 201.22042971 10.54854263 202.72274303 10.55419731 204.22501373 C10.61381394 222.51554703 5.08681846 236.22085487 -7.4296875 249.5859375 C-28.06461411 268.96646128 -53.61091533 272.72138967 -80.74267578 272.13623047 C-101.12666398 271.2837147 -120.68647951 261.12444532 -135.03515625 246.99609375 C-146.78820561 234.20980929 -150.98845123 219.92105101 -150.37890625 202.81640625 C-149.41013496 187.29480727 -141.14482666 174.4673296 -130 164 C-107.81627779 146.19540217 -81.10711249 141.25104608 -53.25732422 144.30029297 C-42.48819081 146.03014149 -31.09519692 149.93653539 -22 156 C-22.00368717 155.25308584 -22.00737434 154.50617168 -22.01117325 153.73662376 C-22.09952824 135.5587127 -22.16571153 117.38084452 -22.20724869 99.20276451 C-22.22786991 90.41195334 -22.25598205 81.62128555 -22.30175781 72.83056641 C-22.34163911 65.16815743 -22.36743602 57.5058523 -22.37635398 49.84334242 C-22.38156657 45.78642587 -22.39380865 41.72980638 -22.42292023 37.67298508 C-22.45010993 33.85296523 -22.45843794 30.03336426 -22.45243073 26.21325684 C-22.45352939 24.81282905 -22.46146249 23.41238698 -22.4768219 22.012043 C-22.61337644 8.91766635 -22.61337644 8.91766635 -18 4 C-12.72867143 -1.00776214 -6.89190982 -0.92775709 0 0 Z M-109.77734375 190.7265625 C-115.40965312 196.97856361 -117.71490009 202.40274452 -117.47265625 210.90234375 C-116.2897075 218.65505748 -111.2237675 224.65225535 -105.2578125 229.47265625 C-101.08737653 232.29383353 -96.69526375 234.2197125 -92 236 C-91.21625 236.32097656 -90.4325 236.64195312 -89.625 236.97265625 C-74.73741262 242.10219357 -56.58907752 240.11542234 -42.43359375 233.8671875 C-33.95361908 229.53393479 -26.12951753 223.25935231 -23 214 C-21.86261557 207.0172054 -22.45769865 201.08431469 -26.33203125 195.09375 C-35.87236814 183.11805779 -49.86332615 177.92128932 -64.75 176.1875 C-80.71977745 175.21650448 -98.03384548 179.31859275 -109.77734375 190.7265625 Z "
    fill="#626262" transform="translate(390,192)" />
</svg>