<?xml version="1.0"?>
<!DOCTYPE svg PUBLIC "-//W3C//DTD SVG 1.1//EN" "http://www.w3.org/Graphics/SVG/1.1/DTD/svg11.dtd">
<svg height="100%" fill="#626262" style="fill-rule:evenodd;clip-rule:evenodd;stroke-linejoin:round;stroke-miterlimit:2;"
  version="1.1" viewBox="0 0 32 32" width="100%" xml:space="preserve" xmlns="http://www.w3.org/2000/svg">
  <g id="Icon">
    <path
      d="M4,4.998l0.002,22.002c0,0.552 0.448,1 1,1c0.552,0 1,-0.448 1,-1l-0.002,-22.002c0,-0.552 -0.448,-1 -1,-1c-0.552,0 -1,0.448 -1,1Z">
    </path>
    <path
      d="M10.998,5.004l0.002,21.996c0,0.552 0.448,1 1,1c0.552,0 1,-0.448 1,-1l-0.002,-21.996c0,-0.552 -0.448,-1 -1,-1c-0.552,0 -1,0.448 -1,1Z">
    </path>
    <path
      d="M15.108,5.356l10.996,22c0.247,0.493 0.848,0.694 1.341,0.447c0.494,-0.247 0.694,-0.848 0.448,-1.341l-10.996,-22c-0.247,-0.494 -0.848,-0.695 -1.342,-0.448c-0.494,0.247 -0.694,0.848 -0.447,1.342Z">
    </path>
  </g>
</svg>