<?xml version="1.0" encoding="UTF-8"?>
<svg version="1.1" xmlns="http://www.w3.org/2000/svg" width="512" height="512">
  <path
    d="M0 0 C6.99039516 3.8249332 9.76355108 8.7868342 12.03125 16.14453125 C18.65489868 36.59811305 35.00268267 56.13876938 51.875 69.125 C52.48303467 69.59663574 53.09106934 70.06827148 53.7175293 70.55419922 C63.05939556 77.75137842 72.72407299 84.42578715 82.49975586 91.0144043 C118.44807846 115.27402476 147.16726591 142.26037987 156.3125 186.8125 C159.21525592 204.91816927 158.38098375 224.94689478 154.3125 242.8125 C154.14089355 243.58029785 153.96928711 244.3480957 153.79248047 245.13916016 C149.62495381 263.29527497 143.16742965 280.43583459 134.3125 296.8125 C133.74789063 297.86953125 133.18328125 298.9265625 132.6015625 300.015625 C126.80777771 310.40635641 119.60964165 322.22723751 108.9375 328.125 C102.59488361 329.78616143 97.79122126 329.233093 92.13671875 326.078125 C87.40053298 322.79220597 84.40905283 318.51457471 83.3125 312.8125 C82.93238326 304.25987341 86.1148282 298.49319157 91.73828125 292.22265625 C93.20111905 290.35003327 93.8405016 289.15984916 94.3125 286.8125 C93.6018063 281.60286133 92.00979626 276.76383329 90.3125 271.8125 C90.09770996 271.15507812 89.88291992 270.49765625 89.66162109 269.8203125 C78.12936741 234.74701205 53.36051719 211.11130657 21.53735352 193.91235352 C18.51585469 192.4186794 15.41298841 191.13284301 12.3125 189.8125 C12.31103344 190.93249421 12.30956688 192.05248842 12.30805588 193.20642185 C12.27140635 220.50056631 12.21188529 247.79458858 12.12859726 275.08863163 C12.08884476 288.28801226 12.05643298 301.4873336 12.04150391 314.68676758 C12.0284678 326.19588729 12.00145301 337.70487633 11.95788693 349.21392244 C11.93531638 355.30380213 11.91958669 361.3935209 11.92061615 367.48344612 C11.92136535 373.22496884 11.90330998 378.96613644 11.87133217 384.70756721 C11.86287003 386.80563739 11.86105793 388.90374758 11.86669731 391.00182724 C11.91896948 413.45387845 7.3978818 431.73204772 -8.78515625 448.06640625 C-30.26610102 468.39090715 -57.51831853 475.65221192 -86.5234375 475.12890625 C-100.07215653 474.62342017 -113.38628815 471.53363718 -125.6875 465.8125 C-126.56583496 465.4110376 -126.56583496 465.4110376 -127.46191406 465.00146484 C-145.73707916 456.49770305 -160.42024679 443.06725818 -168.46484375 424.2890625 C-174.44233154 407.29237198 -173.65671363 390.59945794 -166.4765625 374.015625 C-156.3227968 353.70809361 -137.30221058 340.45657799 -116.3125 333 C-87.58067049 324.18692069 -57.38693837 325.81514049 -30.43139648 339.41845703 C-29.54024643 339.86722198 -28.64909637 340.31598694 -27.73094177 340.77835083 C-27.05660599 341.11962006 -26.3822702 341.46088928 -25.6875 341.8125 C-25.68977832 340.77282562 -25.68977832 340.77282562 -25.69210267 339.71214771 C-25.78160783 298.63580591 -25.85024262 257.55947542 -25.89176132 216.48305571 C-25.89676417 211.5513664 -25.90194145 206.61967729 -25.90722656 201.68798828 C-25.9082758 200.7061745 -25.90932505 199.72436073 -25.91040608 198.71279502 C-25.92781306 182.81374701 -25.95935237 166.91475683 -25.99611118 151.01574314 C-26.03351245 134.7028491 -26.05573413 118.38998536 -26.06385398 102.07705021 C-26.06934344 92.01043945 -26.08668373 81.94399214 -26.11916587 71.87743169 C-26.14030368 64.97515285 -26.1467017 58.07295857 -26.14150551 51.17064971 C-26.13894259 47.18787243 -26.14288152 43.20538087 -26.1643219 39.22265434 C-26.18381876 35.57428366 -26.18475005 31.92639024 -26.17109558 28.27799737 C-26.16861112 26.33733758 -26.18583507 24.39668323 -26.20382524 22.45610523 C-26.15110096 14.76370257 -25.52706124 8.70160397 -19.87109375 2.97265625 C-19.29488281 2.61042969 -18.71867188 2.24820312 -18.125 1.875 C-17.54621094 1.49472656 -16.96742188 1.11445313 -16.37109375 0.72265625 C-10.98768924 -2.18762972 -5.61972985 -1.80974351 0 0 Z M11.3125 83.8125 C11.3125 105.2625 11.3125 126.7125 11.3125 148.8125 C18.31124466 151.61829799 18.31124466 151.61829799 25.33984375 154.34765625 C41.3066199 160.51310503 56.04309472 168.98745885 69.3125 179.8125 C69.82973633 180.22967285 70.34697266 180.6468457 70.87988281 181.07666016 C89.09484742 195.82236786 102.92595888 212.20547084 114.44921875 232.65625 C115.06410156 233.6978125 115.67898438 234.739375 116.3125 235.8125 C116.6425 235.8125 116.9725 235.8125 117.3125 235.8125 C121.76687089 209.69609923 121.76960929 184.49058369 106.38671875 161.56640625 C92.84656317 143.58936353 74.74361264 131.01675388 56.1875 118.75 C42.81072909 109.90165674 30.46427409 100.26364413 18.3125 89.8125 C16.0025 87.8325 13.6925 85.8525 11.3125 83.8125 Z M-126.1875 381.8125 C-132.22459275 388.28888225 -135.07464973 394.59536286 -134.88671875 403.45703125 C-134.14189393 412.26348938 -128.92084214 417.89728696 -122.6875 423.8125 C-109.230673 434.94165963 -90.95566496 438.99500452 -73.83056641 437.41796875 C-61.42441357 436.00115188 -49.63135352 432.63751554 -39.6875 424.8125 C-38.635625 424.049375 -37.58375 423.28625 -36.5 422.5 C-30.12804156 416.41123971 -26.10925535 409.75371334 -25.6875 400.8125 C-26.16788032 394.85578406 -27.99965459 390.55401553 -31.6875 385.8125 C-32.7703125 384.3275 -32.7703125 384.3275 -33.875 382.8125 C-43.5868488 371.50660915 -60.18065276 366.67841097 -74.4375 365 C-92.84050243 363.84530181 -112.6433618 368.89424619 -126.1875 381.8125 Z "
    fill="#000000" transform="translate(354.6875,19.1875)" />
  <path
    d="M0 0 C0.9477206 -0.00694553 1.89544119 -0.01389106 2.87188059 -0.02104706 C6.03783986 -0.03929866 9.20304825 -0.02905763 12.36903381 -0.01878357 C14.6427771 -0.02584294 16.91651568 -0.03458803 19.19024658 -0.04489136 C25.35967096 -0.06739269 31.52883889 -0.06444376 37.69828868 -0.05556989 C42.84998903 -0.05045978 48.0016412 -0.05775276 53.15333658 -0.06504196 C66.00171732 -0.08301517 78.84992006 -0.07662789 91.69828928 -0.05887216 C102.84729929 -0.04417716 113.99603976 -0.05880261 125.14501505 -0.08764232 C136.60364296 -0.1170614 148.0621002 -0.1274935 159.52077299 -0.11846012 C165.94962609 -0.11353064 172.37826968 -0.11574809 178.80709648 -0.13624763 C184.85240411 -0.15460149 190.89721083 -0.1486489 196.94249153 -0.12404823 C199.15962601 -0.11903958 201.37679863 -0.12253142 203.59390259 -0.13519669 C206.62380516 -0.15113429 209.65205966 -0.13616859 212.68188477 -0.11352539 C213.99381842 -0.13127898 213.99381842 -0.13127898 215.33225578 -0.14939123 C221.48192523 -0.0562036 225.65185387 1.57203045 230.4044342 5.5146637 C234.64464917 10.70892703 234.97718783 15.07802147 234.72084045 21.7099762 C234.12063901 27.03028035 232.34661412 29.61344813 228.5294342 33.2646637 C222.70224835 37.46023751 218.16616464 37.80572223 211.19450378 37.77536011 C210.26412068 37.77918565 209.33373758 37.7830112 208.37516105 37.78695267 C205.25611789 37.79727534 202.13725906 37.79329188 199.01820374 37.7893219 C196.78254526 37.79366879 194.54688828 37.79885186 192.31123352 37.80480957 C186.2368564 37.81821364 180.16254144 37.81877664 174.08815241 37.81624627 C169.0184866 37.81517746 163.94883341 37.82005765 158.8791703 37.82485169 C146.23528015 37.83658674 133.59142808 37.83571902 120.94753848 37.82929488 C109.97238794 37.82412671 98.99732619 37.83537865 88.02219321 37.8543931 C76.74786067 37.87377587 65.47356899 37.88173532 54.19921577 37.87826985 C47.87157523 37.87645581 41.544016 37.87910521 35.2163887 37.89298439 C29.26561567 37.9055482 23.31502045 37.90363218 17.36425018 37.8905735 C15.18055792 37.88820499 12.99685319 37.89095221 10.8131752 37.89919662 C7.83135392 37.90964234 4.85013163 37.90158056 1.86833191 37.8888855 C1.00499619 37.89625978 0.14166046 37.90363407 -0.74783695 37.91123182 C-6.84239601 37.85667655 -11.81520015 36.95163757 -16.5565033 32.7959137 C-17.02314392 32.2081012 -17.48978455 31.6202887 -17.9705658 31.0146637 C-18.45267517 30.4268512 -18.93478455 29.8390387 -19.4315033 29.2334137 C-22.73389432 24.35740011 -22.21513797 18.13354235 -21.5955658 12.5146637 C-19.65293707 7.10492181 -16.70775251 4.17940976 -11.68056381 1.3789674 C-7.87147268 -0.20003246 -4.07108217 -0.0382605 0 0 Z "
    fill="#000000" transform="translate(21.595565795898438,127.48533630371094)" />
  <path
    d="M0 0 C0.93684136 -0.00367669 1.87368271 -0.00735338 2.8389132 -0.01114148 C5.99175573 -0.02219275 9.14456531 -0.0260246 12.29742432 -0.02983093 C14.5524913 -0.03609445 16.80755726 -0.04274115 19.06262207 -0.04974365 C25.19907877 -0.06716273 31.33552768 -0.07770773 37.47200298 -0.08594918 C41.30419488 -0.09109702 45.13638434 -0.09717283 48.96857452 -0.10346031 C59.58010952 -0.12033031 70.19164238 -0.13496549 80.80318832 -0.14220905 C83.55647534 -0.14411892 86.30976234 -0.14603926 89.06304932 -0.147995 C90.0895124 -0.14872061 90.0895124 -0.14872061 91.1367121 -0.14946087 C102.22193697 -0.1577611 113.30705393 -0.1830984 124.39223167 -0.21557567 C135.77498166 -0.24865272 147.1576575 -0.26632563 158.54046273 -0.26985329 C164.93077185 -0.27220635 171.32091037 -0.28120032 177.71117401 -0.30631447 C183.72268113 -0.32955824 189.73390488 -0.33384314 195.74544525 -0.32355309 C197.95172059 -0.32305673 200.15800971 -0.32940633 202.36424255 -0.34310913 C205.37695827 -0.36077385 208.38865111 -0.35374813 211.40136719 -0.34057617 C212.71008998 -0.35703004 212.71008998 -0.35703004 214.04525161 -0.37381631 C220.5443514 -0.30524351 224.80641163 1.26010857 229.69683838 5.74482727 C234.34535303 11.7558376 234.51749116 16.75590995 233.95465088 24.14717102 C232.20695336 29.59587506 228.56186926 32.93258911 223.95465088 36.14717102 C219.94773548 37.48280949 216.09431403 37.29521669 211.91603088 37.29434204 C210.5118272 37.29985707 210.5118272 37.29985707 209.07925576 37.30548352 C205.92874721 37.31653485 202.77827163 37.32036666 199.62774658 37.32417297 C197.37430211 37.33043653 195.12085868 37.33708323 192.86741638 37.34408569 C186.73502464 37.36150539 180.6026407 37.37205012 174.47023034 37.38029122 C170.64004076 37.38543936 166.80985362 37.39151517 162.97966576 37.39780235 C152.37242197 37.4146731 141.76518034 37.42930783 131.15792561 37.43655109 C128.40567842 37.43846095 125.65343124 37.44038129 122.90118408 37.44233704 C121.87511447 37.44306265 121.87511447 37.44306265 120.82831617 37.44380292 C109.75023333 37.45210106 98.67225855 37.47743444 87.59422288 37.50991771 C76.21711813 37.54300554 64.84008758 37.56066877 53.46292752 37.56419533 C47.07649884 37.56654744 40.69024093 37.57552903 34.3038578 37.60065651 C28.29480989 37.62391702 22.28604544 37.6281784 16.27696419 37.61789513 C14.07272143 37.61739917 11.86846483 37.62373718 9.66426468 37.63745117 C6.65189966 37.65514306 3.64055489 37.64807672 0.62818909 37.63491821 C-0.67616444 37.65137208 -0.67616444 37.65137208 -2.00686854 37.66815835 C-8.60024427 37.59876074 -13.9874046 35.95028683 -18.92034912 31.42842102 C-22.64856303 25.52541566 -22.90662496 19.9986687 -22.04534912 13.14717102 C-20.32882702 7.69468904 -16.64915239 4.35937012 -12.04534912 1.14717102 C-8.03649293 -0.18911438 -4.18033485 -0.0008744 0 0 Z "
    fill="#000000" transform="translate(22.04534912109375,17.852828979492188)" />
  <path
    d="M0 0 C1.67916 -0.0076664 1.67916 -0.0076664 3.39224243 -0.01548767 C7.08723316 -0.02937053 10.78203709 -0.02842778 14.47705078 -0.02612305 C17.0500597 -0.03001079 19.62306799 -0.03434562 22.19607544 -0.03910828 C27.58777215 -0.04656777 32.97939667 -0.04641988 38.37109375 -0.04101562 C44.58888367 -0.03497881 50.80644712 -0.04728303 57.02419841 -0.06858569 C63.02244699 -0.08837499 69.02057759 -0.09136957 75.01886368 -0.08785057 C77.56331031 -0.08836334 80.10776059 -0.09359265 82.65218735 -0.10366249 C86.21361376 -0.11602712 89.77451915 -0.10923433 93.3359375 -0.09765625 C94.38243469 -0.10529999 95.42893188 -0.11294373 96.50714111 -0.12081909 C103.2797263 -0.07226372 109.32594771 0.50690795 114.82080078 4.88793945 C119.05842778 10.2155919 121.07752907 14.32450657 120.67236328 21.2746582 C119.9206348 27.09618344 117.66916293 30.50137433 113.42236328 34.5246582 C107.11009822 38.73283491 100.92255459 38.56659703 93.59472656 38.54931641 C92.47528656 38.55442734 91.35584656 38.55953827 90.20248413 38.56480408 C86.5074934 38.57868694 82.81268947 38.57774419 79.11767578 38.57543945 C76.54466686 38.5793272 73.97165858 38.58366203 71.39865112 38.58842468 C66.00695442 38.59588418 60.61532989 38.59573629 55.22363281 38.59033203 C49.0058429 38.58429522 42.78827944 38.59659943 36.57052815 38.6179021 C30.57227957 38.6376914 24.57414897 38.64068598 18.57586288 38.63716698 C16.03141625 38.63767974 13.48696597 38.64290906 10.94253922 38.6529789 C7.3811128 38.66534352 3.82020742 38.65855074 0.25878906 38.64697266 C-1.31095673 38.65843826 -1.31095673 38.65843826 -2.91241455 38.6701355 C-9.69640198 38.62149838 -15.84120042 38.08117048 -21.26123047 33.5559082 C-21.71626953 32.9680957 -22.17130859 32.3802832 -22.64013672 31.7746582 C-23.11322266 31.1868457 -23.58630859 30.5990332 -24.07373047 29.9934082 C-27.30662689 25.07135137 -26.72840225 18.91203307 -26.20263672 13.2746582 C-24.60916389 8.39031759 -21.49061134 5.03121332 -17.20263672 2.2746582 C-11.54771999 -0.22311621 -6.06512211 -0.01430289 0 0 Z "
    fill="#000000" transform="translate(26.20263671875,236.725341796875)" />
  <path
    d="M0 0 C0.99811203 -0.00571014 1.99622406 -0.01142029 3.02458191 -0.01730347 C4.11351242 -0.01842133 5.20244293 -0.01953918 6.32437134 -0.02069092 C8.05180321 -0.02813828 8.05180321 -0.02813828 9.81413269 -0.03573608 C13.62695918 -0.05035123 17.43974408 -0.05715818 21.25259399 -0.06268311 C23.90051271 -0.06843448 26.54843141 -0.07419221 29.1963501 -0.07995605 C34.03986807 -0.08952197 38.88337706 -0.09542231 43.72690332 -0.09845281 C50.84869052 -0.10293376 57.97028581 -0.12048709 65.09201467 -0.1494534 C70.60297549 -0.17108779 76.11388238 -0.18115799 81.6248852 -0.18249393 C84.91374992 -0.18354055 88.20239316 -0.19086957 91.49122238 -0.20731354 C95.16101408 -0.22435454 98.83033745 -0.22249835 102.50015259 -0.21600342 C103.58503464 -0.2252182 104.66991669 -0.23443298 105.78767395 -0.243927 C112.82771981 -0.20486645 117.15418409 0.79017366 122.72915649 5.32794189 C126.76189514 10.23262404 128.36874567 14.76090294 128.10415649 21.14044189 C127.34298853 26.50998548 125.05132522 30.50063779 121.04165649 34.14044189 C115.35245548 37.9130756 109.87209839 37.57779898 103.28823853 37.56036377 C102.1102771 37.56883331 100.93231567 37.57730286 99.71865845 37.58602905 C96.49946798 37.60537682 93.28063419 37.61117912 90.06139612 37.60928154 C87.3677304 37.60916152 84.67411839 37.61773861 81.98046768 37.62605906 C75.62175821 37.64526946 69.26318 37.64818576 62.90444946 37.64141846 C56.35933236 37.63478056 49.81477922 37.65763658 43.26977646 37.69473219 C37.63727243 37.72548967 32.00494924 37.73678268 26.37236297 37.73289537 C23.01407165 37.73083391 19.65621925 37.73621236 16.29800797 37.76078796 C12.54950688 37.78296036 8.80236059 37.7732819 5.05386353 37.75567627 C3.39996109 37.77557114 3.39996109 37.77557114 1.71264648 37.79586792 C-5.07211842 37.72195156 -9.76503221 36.67083158 -14.95834351 32.14044189 C-19.19866054 26.94605353 -19.53516364 22.57400648 -19.27084351 15.94122314 C-18.55717597 9.54497789 -15.46393903 6.3364864 -10.77474976 2.33966064 C-7.38654794 0.1027188 -3.97886526 0.01366613 0 0 Z "
    fill="#000000" transform="translate(18.958343505859375,346.85955810546875)" />
</svg>